<svg width="19" height="18" viewBox="0 0 19 18" fill="none" xmlns="http://www.w3.org/2000/svg">
<path fill-rule="evenodd" clip-rule="evenodd" d="M2.20256 8.0549C2.85456 6.59067 4.91865 3 9.50021 3C14.0819 3 16.1458 6.59086 16.7977 8.05504C17.0664 8.65863 17.0664 9.34137 16.7977 9.94496C16.1458 11.4091 14.0819 15 9.50021 15C4.91865 15 2.85456 11.4093 2.20256 9.9451C1.93376 9.34143 1.93376 8.65857 2.20256 8.0549ZM9.5 12C11.1569 12 12.5 10.6569 12.5 9C12.5 7.34315 11.1569 6 9.5 6C7.84315 6 6.5 7.34315 6.5 9C6.5 10.6569 7.84315 12 9.5 12Z" fill="#555C63"/>
<path d="M8.375 9C8.99632 9 9.5 8.49632 9.5 7.875C9.5 7.74401 9.47761 7.61824 9.43645 7.50132C9.45752 7.50044 9.47871 7.5 9.5 7.5C10.3284 7.5 11 8.17157 11 9C11 9.82843 10.3284 10.5 9.5 10.5C8.67157 10.5 8 9.82843 8 9C8 8.97871 8.00044 8.95752 8.00132 8.93645C8.11824 8.97761 8.24401 9 8.375 9Z" fill="#555C63"/>
</svg>
