<svg width="39" height="34" viewBox="0 0 39 34" fill="none" xmlns="http://www.w3.org/2000/svg">
<rect width="39" height="34" rx="8" fill="#2C3034"/>
<path d="M26 13C26 11.4087 25.3679 9.88258 24.2426 8.75736C23.1174 7.63214 21.5913 7 20 7C18.4087 7 16.8826 7.63214 15.7574 8.75736C14.6321 9.88258 14 11.4087 14 13C14 20 11 22 11 22H29C29 22 26 20 26 13Z" stroke="#989898" stroke-width="2" stroke-linecap="round" stroke-linejoin="round"/>
<path d="M21.73 26C21.5542 26.3031 21.3019 26.5547 20.9982 26.7295C20.6946 26.9044 20.3504 26.9965 20 26.9965C19.6496 26.9965 19.3054 26.9044 19.0018 26.7295C18.6982 26.5547 18.4458 26.3031 18.27 26" stroke="#989898" stroke-width="2" stroke-linecap="round" stroke-linejoin="round"/>
</svg>
