<svg width="48" height="48" viewBox="0 0 48 48" fill="none" xmlns="http://www.w3.org/2000/svg">
<g filter="url(#filter0_ddd_0_585)">
<path d="M24.375 14H17.4583C15.5217 14 14 15.5714 14 17.5714V30.4286C14 32.4286 15.5217 34 17.4583 34H24.375C26.3117 34 27.8334 32.4286 27.8334 30.4286V17.5714C27.8334 15.5714 26.3117 14 24.375 14ZM18.15 19C18.15 19.4286 17.8733 19.7143 17.4583 19.7143C17.0433 19.7143 16.7667 19.4286 16.7667 19V17.5714C16.7667 17.1429 17.0433 16.8571 17.4583 16.8571C17.8733 16.8571 18.15 17.1429 18.15 17.5714V19ZM23.1992 24.9286C22.9225 25.2143 22.5075 25.4286 22.0925 25.4286C21.9542 25.4286 21.7467 25.4286 21.6084 25.3571V26.1429C22.0234 26.1429 22.3 26.4286 22.3 26.8571C22.3 27.2857 22.0234 27.5714 21.6084 27.5714H20.225C19.81 27.5714 19.5334 27.2857 19.5334 26.8571C19.5334 26.4286 19.81 26.1429 20.225 26.1429V25.3571C20.0867 25.4286 19.8792 25.4286 19.7409 25.4286C19.3259 25.4286 18.9108 25.2857 18.6342 24.9286C18.0117 24.2857 18.0117 23.2143 18.6342 22.5714L20.4325 20.6429C20.7092 20.3571 21.1934 20.3571 21.4009 20.6429L23.1992 22.5714C23.8217 23.2143 23.8217 24.2857 23.1992 24.9286ZM25.0667 30.4286C25.0667 30.8571 24.79 31.1429 24.375 31.1429C23.96 31.1429 23.6834 30.8571 23.6834 30.4286V29C23.6834 28.5714 23.96 28.2857 24.375 28.2857C24.79 28.2857 25.0667 28.5714 25.0667 29V30.4286Z" fill="url(#paint0_linear_0_585)"/>
<path d="M32.3292 18.7143L29.2167 16.7857V31L33.5051 23.6429C34.4734 21.9286 33.9892 19.7143 32.3292 18.7143Z" fill="url(#paint1_linear_0_585)"/>
</g>
<defs>
<filter id="filter0_ddd_0_585" x="0" y="0" width="48" height="48" filterUnits="userSpaceOnUse" color-interpolation-filters="sRGB">
<feFlood flood-opacity="0" result="BackgroundImageFix"/>
<feColorMatrix in="SourceAlpha" type="matrix" values="0 0 0 0 0 0 0 0 0 0 0 0 0 0 0 0 0 0 127 0" result="hardAlpha"/>
<feOffset dy="4"/>
<feGaussianBlur stdDeviation="4"/>
<feComposite in2="hardAlpha" operator="out"/>
<feColorMatrix type="matrix" values="0 0 0 0 0 0 0 0 0 0 0 0 0 0 0 0 0 0 0.15 0"/>
<feBlend mode="normal" in2="BackgroundImageFix" result="effect1_dropShadow_0_585"/>
<feColorMatrix in="SourceAlpha" type="matrix" values="0 0 0 0 0 0 0 0 0 0 0 0 0 0 0 0 0 0 127 0" result="hardAlpha"/>
<feOffset/>
<feGaussianBlur stdDeviation="7"/>
<feComposite in2="hardAlpha" operator="out"/>
<feColorMatrix type="matrix" values="0 0 0 0 0.909945 0 0 0 0 0.382177 0 0 0 0 0 0 0 0 0.25 0"/>
<feBlend mode="normal" in2="effect1_dropShadow_0_585" result="effect2_dropShadow_0_585"/>
<feColorMatrix in="SourceAlpha" type="matrix" values="0 0 0 0 0 0 0 0 0 0 0 0 0 0 0 0 0 0 127 0" result="hardAlpha"/>
<feOffset/>
<feGaussianBlur stdDeviation="3"/>
<feComposite in2="hardAlpha" operator="out"/>
<feColorMatrix type="matrix" values="0 0 0 0 0.909945 0 0 0 0 0.272983 0 0 0 0 0 0 0 0 0.25 0"/>
<feBlend mode="normal" in2="effect2_dropShadow_0_585" result="effect3_dropShadow_0_585"/>
<feBlend mode="normal" in="SourceGraphic" in2="effect3_dropShadow_0_585" result="shape"/>
</filter>
<linearGradient id="paint0_linear_0_585" x1="14" y1="14" x2="37.4741" y2="28.7958" gradientUnits="userSpaceOnUse">
<stop stop-color="#F9D066"/>
<stop offset="1" stop-color="#F0A54C"/>
</linearGradient>
<linearGradient id="paint1_linear_0_585" x1="14" y1="14" x2="37.4741" y2="28.7958" gradientUnits="userSpaceOnUse">
<stop stop-color="#F9D066"/>
<stop offset="1" stop-color="#F0A54C"/>
</linearGradient>
</defs>
</svg>
